<?xml version="1.0" encoding="utf-8"?>
<!-- Generator: Adobe Illustrator 23.0.2, SVG Export Plug-In . SVG Version: 6.00 Build 0)  -->
<svg version="1.1" id="Layer_1" xmlns="http://www.w3.org/2000/svg" xmlns:xlink="http://www.w3.org/1999/xlink" x="0px" y="0px"
	 viewBox="0 0 152 39" style="enable-background:new 0 0 152 39;" xml:space="preserve">
<style type="text/css">
	.st0{enable-background:new    ;}
	.st1{fill:#30323A;}
</style>
<g class="st0">
	<path class="st1" d="M28.5,10.4c0.2-0.1,0.3-0.3,0.4-0.4c0.1-0.1,0.2-0.3,0.4-0.4c0.1,0.1,0.1,0.1,0.1,0.1
		c-0.2,0.2-0.3,0.3-0.4,0.5s-0.3,0.3-0.4,0.5c-2.4,2.4-5.1,4.6-8,6.4c-0.2,0.1-0.3,0.2-0.5,0.3c-0.2,0.1-0.4,0.2-0.6,0.3
		c-0.2,0.1-0.3,0.1-0.4,0.1c-0.1,0-0.2,0.1-0.4,0.1v-0.4c-0.2,0-0.4,0.1-0.5,0.1c-0.2,0-0.3-0.1-0.3-0.3c-0.1,0.1-0.2,0.1-0.3,0.1
		c-0.1,0-0.2,0.1-0.3,0.1c-0.2,0.1-0.3,0.1-0.4,0c0-0.2,0-0.4,0.1-0.5l0.6-0.6c0.7-0.6,1.4-1.2,2-1.8c0.7-0.6,1.3-1.2,2-1.8
		c0.7-0.6,1.3-1.1,2-1.7c0.6-0.6,1.2-1.2,1.8-1.8c0.2-0.2,0.3-0.4,0.5-0.6c0.2-0.2,0.3-0.4,0.4-0.7c-0.1,0.1-0.2,0.1-0.3,0.1
		c-0.1,0-0.1,0-0.2,0.1c-0.1,0.1-0.2,0.2-0.3,0.3c-0.1,0.1-0.2,0.2-0.2,0.3c-0.3,0.5-0.7,1-1.2,1.4c-0.4,0.4-0.9,0.8-1.3,1.2
		c-1,0.9-2.1,1.8-3.1,2.7c-1,0.9-2.1,1.8-3.1,2.7c-0.2-0.2-0.1-0.5,0.1-0.8c0.4-0.5,0.7-0.8,1-1.1c0.6-0.5,1.2-1.1,1.8-1.6
		c0.6-0.5,1.2-1.1,1.8-1.6c1.3-1.3,2.6-2.5,3.8-3.8c0.2-0.2,0.3-0.4,0.5-0.6c0.2-0.2,0.3-0.5,0.5-0.7c-0.2,0-0.3-0.1-0.3-0.1
		c-0.1,0-0.1,0-0.2,0c-0.8,0-1.5,0.2-2.3,0.4c-0.8,0.2-1.5,0.5-2.2,0.8c-1.3,0.5-2.6,1.2-3.9,1.9c-1.2,0.8-2.5,1.6-3.7,2.4
		c-0.2,0.1-0.3,0.2-0.4,0.3c-0.1,0.1-0.3,0.2-0.4,0.3c0.1-0.1,0.2-0.2,0.3-0.3c0.1-0.1,0.2-0.2,0.3-0.3c-0.3,0.1-0.5,0.2-0.7,0.4
		c0,0,0,0.1,0,0.1c0,0.1,0,0.1,0,0.1c-0.1,0-0.2,0-0.3,0l-0.1,0.1c-0.3,0.2-0.7,0.4-1,0.6c-0.3,0.3-0.7,0.5-1,0.8
		c-0.3,0.3-0.6,0.6-0.8,0.8S9.1,15.6,9,15.7c0.4-0.3,0.8-0.7,1.2-1.1c0.4-0.4,0.8-0.7,1.2-1.1c-0.2,0.2-0.4,0.4-0.6,0.7
		c-0.2,0.2-0.4,0.4-0.7,0.7c-0.3,0.3-0.5,0.6-0.7,0.8c-0.2,0.2-0.3,0.5-0.5,0.8c0.1,0,0.2,0.1,0.3,0.1c0.1,0,0.2,0.1,0.3,0.1
		c0.9,0.2,1.8,0.4,2.7,0.5c0.9,0.2,1.8,0.4,2.7,0.6c1.1,0.3,2.1,0.6,3,1c0.9,0.4,1.8,1,2.5,1.7c0.6,0.6,1.1,1.3,1.5,2
		c0.3,0.7,0.4,1.4,0.3,2.1c-0.2,0.7-0.5,1.4-1.1,2.1c-0.3,0.4-0.7,0.9-1.1,1.2c-0.4,0.4-0.8,0.8-1.2,1.2c-0.1,0.1-0.2,0.3-0.4,0.4
		s-0.2,0.3-0.3,0.4l0.4-0.3c1-0.8,1.8-1.6,2.5-2.5c0.1-0.2,0.2-0.3,0.4-0.4c0.1-0.1,0.2-0.3,0.4-0.4c-0.2,0.3-0.3,0.6-0.5,0.9
		c-0.2,0.3-0.4,0.5-0.6,0.8c-0.6,0.7-1.2,1.3-1.9,1.8c-0.7,0.5-1.3,1.1-2.1,1.6c-2,1.4-4.2,2.6-6.5,3.7c-0.5,0.3-1.1,0.5-1.6,0.6
		C8.1,35.9,7.5,36,7,36.1c-0.3,0-0.6,0.1-0.8,0.1c-0.3,0-0.5,0-0.8-0.1c-1-0.2-1.8-0.5-2.6-0.7c-0.3-0.1-0.6-0.2-0.9-0.4
		c-0.3-0.2-0.4-0.5-0.5-0.8c0-0.1,0-0.1-0.1-0.2c0,0-0.1-0.1-0.1-0.2c-0.3-0.3-0.3-0.8-0.3-1.2c0.1-0.5,0.3-0.9,0.7-1.4
		c0.4-0.5,0.8-0.9,1.3-1.2c0.9-0.7,1.8-1.3,2.8-1.9c0.9-0.6,1.9-1.2,2.9-1.7c0.4-0.2,0.8-0.4,1.2-0.6c0.4-0.2,0.8-0.3,1.3-0.5
		c-0.2,0.3-0.3,0.5-0.3,0.7c0.2-0.1,0.3-0.1,0.5-0.2s0.4-0.1,0.6-0.2v0.5c0.1,0,0.1,0,0.3,0s0.2,0,0.3,0.1c0,0.1,0,0.2,0,0.3
		c0,0.1-0.1,0.3-0.1,0.4c0.1,0,0.1,0,0.2,0c0.1,0,0.1,0,0.2,0c-0.2,0.3-0.4,0.6-0.7,0.9c-0.3,0.2-0.6,0.4-0.9,0.4c0,0,0,0,0,0
		c-0.4,0.3-0.8,0.6-1.2,0.8c-0.4,0.2-0.8,0.4-1.2,0.8c-0.1,0.1-0.1,0.1-0.2,0.2c0,0-0.1,0.1-0.2,0.2c-0.4,0.2-0.9,0.5-1.4,0.9
		c-0.5,0.4-0.9,0.8-1.1,1.1c0.2-0.1,0.4-0.2,0.5-0.3c0.1-0.1,0.3-0.2,0.4-0.2c0,0,0,0.1,0,0.1c0,0,0,0,0,0.1v0.1
		c0.1,0,0.2-0.1,0.3-0.1c0.1,0,0.2-0.1,0.3-0.1c1.3-0.5,2.6-1.2,3.9-1.9c1.3-0.7,2.5-1.6,3.7-2.5c0.3-0.3,0.7-0.5,0.9-0.8
		c0.3-0.3,0.5-0.6,0.8-0.9c0.4-0.5,0.8-1,1-1.6c0.3-0.8,0.2-1.4-0.4-1.8c-0.8-0.5-1.6-0.9-2.6-1.1c-0.8-0.2-1.5-0.4-2.3-0.5
		c-0.8-0.2-1.6-0.3-2.4-0.5c-0.7-0.2-1.3-0.3-2-0.5c-0.6-0.2-1.2-0.5-1.8-0.8c-0.4-0.3-0.8-0.6-1-0.9C5,17.4,4.9,17,4.7,16.5
		c-0.1-0.3-0.1-0.7,0.1-1.1s0.4-0.7,0.6-1.1c0.3-0.5,0.6-0.9,0.9-1.3c0.3-0.4,0.7-0.8,1.2-1.2c1.1-1.1,2.3-2,3.5-2.9
		c1.2-0.9,2.4-1.7,3.8-2.4c0.5-0.3,1-0.6,1.5-0.9c0.5-0.3,1-0.5,1.5-0.8c1.2-0.6,2.4-1,3.6-1.4c1.2-0.3,2.4-0.5,3.6-0.5
		c2.1,0,3.7,0.8,4.8,2.5c0.4,0.6,0.6,1.2,0.5,1.7c-0.1,0.5-0.5,1.2-1.1,1.8c-0.5,0.5-1,1.1-1.6,1.6c-0.5,0.5-1.1,1.1-1.6,1.6
		c-0.1,0.1-0.1,0.2-0.2,0.3c-0.1,0.1-0.2,0.2-0.3,0.3c-0.3,0.2-0.5,0.4-0.8,0.6c-0.3,0.2-0.5,0.4-0.8,0.6c0.1,0.1,0.1,0.1,0,0.1
		l1.6-1.3c0.4-0.4,0.9-0.9,1.4-1.3C27.5,11.3,28,10.9,28.5,10.4z M3.5,30.9c0.4-0.3,0.9-0.7,1.2-1c0.4-0.3,0.8-0.6,1.2-1
		C6,28.9,6,28.8,6,28.8c0,0,0.1-0.1,0.1-0.1c-0.8,0.4-1.6,0.9-2.3,1.5c-0.7,0.6-1.1,1.1-1.3,1.6c0.2-0.2,0.4-0.3,0.5-0.4
		C3.2,31.2,3.4,31.1,3.5,30.9z M3.9,31.9c0.2-0.2,0.3-0.3,0.4-0.4c0,0-0.1,0-0.1,0c-0.1,0.1-0.1,0.1-0.2,0.2
		C4,31.7,3.9,31.8,3.9,31.9C3.9,31.8,3.9,31.8,3.9,31.9z M5,32.2c0.2-0.2,0.3-0.3,0.4-0.4s0.3-0.3,0.4-0.5c-0.2,0.1-0.3,0.3-0.5,0.4
		C5.2,31.8,5.1,32,5,32.2z M6.6,30.6c-0.2,0.1-0.3,0.2-0.4,0.3c0,0,0.1,0,0.1,0c0.1-0.1,0.1-0.1,0.2-0.2C6.5,30.8,6.6,30.7,6.6,30.6
		C6.7,30.6,6.7,30.6,6.6,30.6z M6.3,28.6c0.1,0,0.1-0.1,0.2-0.1c0.1,0,0.1,0,0.2-0.1c0,0,0-0.1,0-0.1c0,0,0,0,0-0.1
		c-0.1,0.1-0.1,0.1-0.2,0.1C6.4,28.5,6.3,28.5,6.3,28.6z M7.3,13.8c0.8-0.8,1.6-1.5,2.4-2.2c0.8-0.7,1.6-1.4,2.5-2
		c0.1-0.1,0.2-0.2,0.3-0.3c-0.1,0-0.1,0-0.2,0c-0.1,0-0.1,0-0.2,0.1c-0.8,0.6-1.7,1.2-2.4,1.8c-0.8,0.6-1.6,1.3-2.3,2
		c-0.2,0.2-0.3,0.3-0.4,0.5c-0.1,0.2-0.3,0.4-0.4,0.6C6.8,14.1,7.1,14,7.3,13.8z M7.2,31c0.2-0.2,0.3-0.3,0.5-0.4
		c0.2-0.1,0.3-0.3,0.5-0.4h0l0,0c0.1-0.1,0.1-0.1,0.1-0.1l0,0c-0.3,0.3-0.6,0.5-0.9,0.8c-0.3,0.3-0.6,0.5-0.9,0.8
		c0.1-0.1,0.2-0.2,0.3-0.4C7,31.2,7.1,31.1,7.2,31z M7.8,14.8c0.2-0.2,0.3-0.3,0.4-0.4c0.1-0.1,0.3-0.3,0.4-0.4l-0.1-0.1l-0.8,0.8
		C7.7,14.7,7.8,14.8,7.8,14.8C7.8,14.8,7.8,14.8,7.8,14.8z M8.9,15.3c0.4-0.5,0.8-0.9,1.3-1.4c-0.3,0.2-0.6,0.3-0.8,0.6
		C9.1,14.6,9,14.9,8.9,15.3z M10.6,13.4c0.1-0.1,0.2-0.2,0.3-0.3c0,0,0-0.1,0-0.1c-0.1,0.1-0.1,0.1-0.2,0.2
		C10.7,13.2,10.6,13.3,10.6,13.4C10.5,13.4,10.6,13.4,10.6,13.4z M11.4,13.6c0.2-0.2,0.3-0.3,0.4-0.4c0.1-0.1,0.3-0.3,0.4-0.4
		l0.1-0.1c-0.1,0.3-0.2,0.4-0.4,0.5C11.8,13.3,11.6,13.5,11.4,13.6z M12.6,9.1C12.8,9,13,8.9,13.1,8.8V8.7
		C12.9,8.9,12.7,9.1,12.6,9.1z M17.6,26.2c-0.5,0.5-1.1,0.9-1.6,1.4c-0.5,0.5-1,0.9-1.6,1.3c0.6-0.3,1.2-0.7,1.8-1.1
		S17.3,26.9,17.6,26.2L17.6,26.2z M20.2,27.1c-0.3,0.3-0.5,0.5-0.8,0.8c-0.3,0.3-0.5,0.5-0.8,0.8c0.3-0.2,0.6-0.4,0.9-0.6
		C19.8,27.8,20,27.5,20.2,27.1z M27.4,8.7C27.2,9,27,9.2,26.8,9.4c-0.2,0.2-0.4,0.4-0.5,0.6c0.1,0,0.1,0,0.1,0.1
		c0.2-0.2,0.4-0.4,0.6-0.6C27.1,9.3,27.3,9.1,27.4,8.7L27.4,8.7z M28.6,9.2c-0.4,0.4-0.7,0.8-1.1,1.2c-0.4,0.4-0.7,0.8-1.1,1.2
		l0.1,0.1c0.4-0.4,0.8-0.7,1.2-1.1C28,10.1,28.4,9.7,28.6,9.2L28.6,9.2z"/>
	<path class="st1" d="M42.1,10.9c0.1,0.2,0,0.3-0.2,0.6c-0.2,0.2-0.4,0.3-0.7,0.3c-0.4,0-0.8,0-1.2,0s-0.8,0-1.1,0c-0.3,0-0.7,0-1,0
		c-0.3,0-0.7,0-1,0.1c-0.3,0-0.5,0.1-0.6,0.1c-0.1,0.1-0.2,0.2-0.4,0.5c-0.2,0.3-0.4,0.7-0.6,1.1c-0.2,0.4-0.4,0.7-0.7,1.1
		c0-0.1,0.1-0.2,0.1-0.3c0-0.1,0.1-0.2,0.1-0.4h-0.1c-0.3,0.5-0.5,1-0.8,1.6c-0.3,0.5-0.5,1-0.8,1.6c0.3,0.1,0.4,0.1,0.3,0.1
		c-0.2,0.5-0.4,1-0.6,1.5c-0.2,0.5-0.4,1-0.6,1.4c0,0.1,0,0.2,0,0.2c-0.3,0.3-0.5,0.5-0.6,0.8c0,0.3-0.1,0.6-0.3,0.8
		c-0.2,0.5-0.3,1-0.4,1.5c-0.1,0.5-0.2,1-0.4,1.5c-0.1,0.3-0.1,0.6-0.2,0.8c0,0.3-0.1,0.6-0.2,0.8c-0.2,0.6-0.1,1.1,0.2,1.6
		c0.1,0.2,0,0.3-0.2,0.5c0-0.1,0-0.1,0-0.2c0,0,0-0.1,0-0.2h-0.1c-0.1,0.2-0.2,0.3-0.4,0.4c-0.2,0-0.3,0-0.4,0c-0.1,0-0.2,0-0.3,0
		c-0.1,0-0.2,0.1-0.3,0.1c-0.3,0.3-0.6,0.3-0.9,0c-0.6-0.5-0.8-1.2-0.8-2c0-0.8,0.1-1.5,0.2-2.3c0.1-0.8,0.3-1.5,0.5-2.3
		c0.6-2.3,1.3-4.5,2-6.8c0.2-0.4,0.3-0.9,0.5-1.3c0.2-0.4,0.3-0.9,0.5-1.3c0.1-0.1,0.1-0.3,0.1-0.4c-0.1-0.1-0.1-0.1-0.1-0.1
		c-0.7,0.1-1.3,0-1.9-0.1c-0.6-0.2-1.2-0.3-1.8-0.3c-0.3,0-0.4-0.1-0.5-0.2c-0.1-0.1-0.1-0.3,0-0.6c0,0-0.1,0-0.1,0c0,0-0.1,0-0.1,0
		c-0.3-0.1-0.4-0.2-0.4-0.4c0-0.2,0.1-0.4,0.3-0.7c0.4-0.4,0.8-0.7,1.2-0.7c0.4,0,0.9-0.1,1.3-0.1c0.4,0,0.9,0,1.3-0.1h2.1
		c0.3,0,0.4,0,0.5-0.1c0.1,0,0.2-0.2,0.4-0.4c0.4-0.7,0.9-1.4,1.3-2s0.9-1.4,1.3-2c0.2-0.3,0.5-0.6,0.8-0.9c0.1-0.1,0.2-0.2,0.3-0.3
		c0.1-0.1,0.2-0.2,0.3-0.3c0.5-0.3,0.8-0.3,0.8,0.2c0,0,0,0.2,0.1,0.4c0.2-0.3,0.3-0.4,0.3-0.4c0.2-0.2,0.3-0.2,0.5-0.1
		c0,0,0,0.1,0,0.1c0,0.1,0,0.1,0,0.2c-0.1,0.2-0.1,0.3-0.1,0.5c0.1-0.1,0.2-0.2,0.3-0.3c0.1-0.1,0.2-0.2,0.3-0.3
		c0.1,0.2,0.2,0.3,0.3,0.5c0.1,0.2,0.2,0.3,0.4,0.5c-0.1,0.3-0.3,0.5-0.4,0.8c-0.1,0.3-0.3,0.5-0.4,0.8l0.7-0.7
		c-0.3,0.7-0.6,1.3-1,2c-0.4,0.6-0.7,1.2-1.1,1.9c0.1,0,0.2,0.1,0.3,0.1c0.1,0,0.2,0,0.3,0c0.6,0,1.2,0.1,1.7,0.2s1,0.3,1.4,0.7
		c0.2,0.1,0.3,0.2,0.4,0.3C41.9,10.6,42,10.7,42.1,10.9z M33.1,17.9c0,0.1,0,0.1,0,0.2c0,0.1,0,0.1,0,0.2c0,0,0,0,0,0
		c0-0.1,0-0.1,0-0.2S33.1,17.9,33.1,17.9L33.1,17.9z M33.7,16.6c0.1-0.2,0.1-0.3,0.2-0.5c0.1-0.2,0.1-0.4,0.2-0.6c0,0,0.1,0,0.1,0
		c0,0,0.1,0,0.1,0c-0.1,0.2-0.2,0.3-0.3,0.5c-0.1,0.2-0.1,0.4-0.2,0.6C33.9,16.6,33.8,16.6,33.7,16.6z M37.6,8.9
		c0.1-0.2,0.1-0.3,0.1-0.4c0,0.1-0.1,0.1-0.1,0.2C37.6,8.8,37.6,8.8,37.6,8.9L37.6,8.9z M37.8,8.4c0.1-0.1,0.1-0.1,0.2-0.1
		c0,0,0.1-0.1,0.1-0.1c0.2-0.3,0.3-0.6,0.5-0.8C38.7,7,38.9,6.8,39,6.5c0-0.1,0-0.1,0-0.2c0-0.1,0-0.1,0-0.2
		c-0.2,0.4-0.4,0.8-0.7,1.2C38.2,7.7,38,8,37.8,8.4z"/>
	<path class="st1" d="M52.4,28c-0.2,0.2-0.3,0.4-0.3,0.5c0,0.2-0.2,0.3-0.4,0.5c-0.1,0.1-0.2,0.1-0.4,0.2c-0.1,0.1-0.2,0.1-0.4,0
		c-0.3-0.1-0.5-0.1-0.7-0.1c-0.2,0-0.5,0-0.8,0.1c-0.2,0.1-0.4,0.1-0.5,0s-0.3-0.2-0.4-0.3c-0.6-0.5-0.9-1.1-1.1-1.9
		c-0.3-1-0.3-2.1-0.2-3.2v-0.4H47c-0.5,0.4-1,0.8-1.5,1.2c-0.5,0.4-1,0.8-1.5,1.2c-0.7,0.5-1.3,0.9-2,1.3c-0.7,0.4-1.4,0.7-2.1,1.1
		c-0.7,0.3-1.3,0.3-1.8,0.2h-0.6c-0.8,0.1-1.4-0.1-1.8-0.5c-0.4-0.4-0.6-1-0.5-1.8c0.1-0.5,0.2-1,0.4-1.5c0.2-0.5,0.4-1,0.7-1.5
		c0.4-0.8,0.9-1.6,1.5-2.2c0.5-0.7,1.1-1.3,1.8-2c1-1,2.1-2,3.2-2.9c1.1-0.9,2.3-1.7,3.5-2.5c0.6-0.4,1.3-0.8,2-1
		c0.7-0.3,1.4-0.5,2.1-0.6c0.1,0,0.3,0,0.4,0c0.1,0,0.3,0.1,0.4,0.1c0.1,0,0.2,0,0.3,0c0.1,0,0.1,0,0.2,0c0.4,0,0.7,0.1,1,0.3
		s0.5,0.4,0.7,0.7c0.1,0.1,0.1,0.2,0,0.4c-0.1,0.1-0.2,0.2-0.2,0.4c0.2-0.1,0.3-0.2,0.4-0.3c0.1-0.1,0.2-0.2,0.4-0.3
		c0.1,0.1,0.1,0.1,0.2,0.2c0.1,0.1,0.1,0.2,0.2,0.3c0.4-0.2,0.7-0.1,0.8,0.3c0.1,0.1,0.1,0.2,0.1,0.3c0,0.1,0.1,0.2,0.3,0.2
		c0,0,0,0,0,0.1c0,0.1,0,0.2-0.1,0.2c-0.1,0.3-0.2,0.5-0.3,0.7c-0.1,0.2-0.2,0.4-0.4,0.6c-0.3,0.7-0.7,1.4-1.1,2.2s-0.8,1.4-1.1,2.2
		c-0.2,0.3-0.3,0.6-0.4,0.8c-0.1,0.3-0.2,0.6-0.2,0.9c0.1-0.3,0.2-0.5,0.3-0.7c0.1-0.2,0.2-0.4,0.3-0.6h0.1
		c-0.3,0.9-0.7,1.8-0.9,2.7c-0.1-0.1-0.1-0.2-0.1-0.3c-0.1,0.2-0.1,0.3-0.2,0.4C51.1,23.8,51,23.9,51,24c-0.1,0.3-0.1,0.7-0.1,1.1
		c0,0.4,0,0.8-0.1,1.1c0,0.2,0,0.4,0,0.6c0,0.2,0.1,0.3,0.4,0.4c0,0,0,0.1,0,0.2c0,0.1,0,0.1,0,0.2c0.3-0.1,0.5-0.1,0.6,0
		c0.1,0,0.1,0.2,0.1,0.4H52.4z M36.8,23.5c0.9-1.3,1.9-2.5,2.9-3.6c1-1.1,2.1-2.2,3.3-3.2c-0.6,0.3-1.2,0.8-1.9,1.4
		c-0.7,0.6-1.3,1.2-1.9,1.9c-0.6,0.7-1.1,1.3-1.6,2C37.2,22.5,36.9,23,36.8,23.5z M37.8,23.7c0.2-0.3,0.3-0.5,0.5-0.8
		c0.2-0.3,0.3-0.5,0.5-0.8l-0.1,0c-0.2,0.3-0.3,0.5-0.5,0.8C38.1,23.1,37.9,23.4,37.8,23.7L37.8,23.7z M50.8,14.7
		c0.1-0.1,0.1-0.1,0.1-0.2c0-0.1,0.1-0.1,0.1-0.2c-0.5,0.1-0.9,0.2-1.3,0.4c-0.4,0.2-0.8,0.5-1.2,0.7c-0.6,0.4-1.2,0.8-1.8,1.2
		c-0.6,0.4-1.2,0.9-1.8,1.3c-0.3,0.3-0.7,0.7-1.1,0.9h-0.2c-0.1,0.1-0.2,0.1-0.3,0.2c-0.1,0.1-0.2,0.2-0.3,0.2h-0.1h0.1
		c-0.3,0.2-0.5,0.4-0.7,0.5c-0.2,0.2-0.4,0.4-0.6,0.6C41.5,21,41,21.5,40.6,22c-0.4,0.5-0.8,1-1.2,1.5c-0.6,0.7-0.9,1.4-1,2.3
		c0,0.1,0,0.2,0,0.3c0,0.1,0,0.2,0,0.4c0.3-0.2,0.6-0.4,0.9-0.5c0.3-0.2,0.5-0.3,0.8-0.5c1.5-1,2.9-2.2,4.1-3.4
		c1.2-1.2,2.3-2.4,3.4-3.6C48.7,17.2,49.7,16,50.8,14.7z M41.2,21.6c-0.5,0.6-1,1.3-1.5,1.9c-0.4,0.6-0.8,1.3-1.2,2
		c0.3-0.7,0.6-1.4,1.1-2C40.1,22.8,40.6,22.2,41.2,21.6z M40.3,21.7c-0.3,0.3-0.7,0.7-0.9,1c-0.3,0.3-0.5,0.7-0.6,1.2
		c0.3-0.3,0.5-0.7,0.8-1.1C39.8,22.4,40,22.1,40.3,21.7z M41.6,20.2C41.6,20.2,41.6,20.2,41.6,20.2C41.6,20.2,41.6,20.2,41.6,20.2
		c-0.1,0.1-0.2,0.1-0.2,0.1c0,0,0,0,0.1,0L41.6,20.2L41.6,20.2z M43.9,18.9c-0.2,0.1-0.3,0.2-0.4,0.4c-0.1,0.1-0.2,0.2-0.4,0.4
		c0-0.1,0-0.2,0-0.3c0.1-0.1,0.2-0.1,0.3-0.2c0.1-0.1,0.2-0.2,0.3-0.2H43.9z M48.6,18.7c0.1-0.1,0.1-0.1,0.2-0.3
		c0.1-0.1,0.1-0.2,0.2-0.4l0,0c0,0-0.1,0-0.1,0c-0.7,0.8-1.4,1.5-2.1,2.3c-0.7,0.8-1.4,1.5-2.1,2.2l0,0.1c0.1,0,0.1,0,0.1,0
		c0,0,0.1-0.1,0.1-0.1c0.6-0.6,1.2-1.2,1.8-1.9C47.4,19.9,48,19.3,48.6,18.7z M52.3,14.3c0.3-0.1,0.5-0.3,0.5-0.5
		c-0.1,0.1-0.2,0.2-0.2,0.3C52.5,14.1,52.4,14.2,52.3,14.3z M53.3,18.8c0.1-0.1,0.2-0.1,0.3-0.1c-0.3,0.4-0.5,0.8-0.8,1.3h0
		c0-0.1,0-0.1,0-0.2c0,0,0-0.1,0.1-0.2c0.1-0.1,0.1-0.3,0.2-0.4C53.2,19.1,53.3,18.9,53.3,18.8z M53.2,17.6L53.2,17.6
		C53.3,17.5,53.3,17.5,53.2,17.6c0-0.1,0-0.1,0-0.1V17.6z M54.2,17.2c0,0.3-0.1,0.5-0.2,0.7c-0.1,0.2-0.3,0.4-0.4,0.6
		c0-0.3,0-0.5,0.1-0.7C53.9,17.7,54.1,17.5,54.2,17.2z M54.7,16.5c0-0.1,0.1-0.1,0.1-0.2c0,0,0-0.1,0-0.1h0.1
		c-0.1,0.1-0.1,0.1-0.1,0.1S54.8,16.5,54.7,16.5L54.7,16.5z"/>
	<path class="st1" d="M74.1,15.4c0,0.1,0,0.2-0.1,0.3c-0.2,0.6-0.4,1.1-0.7,1.7c-0.2,0.6-0.4,1.1-0.7,1.6c-0.3,0.8-0.5,1.5-0.8,2.2
		c-0.3,0.7-0.5,1.5-0.8,2.2c-0.3,0.6-0.6,1.3-0.8,1.9c-0.3,0.6-0.6,1.3-0.9,1.9c-0.5,1-1.1,2-1.8,2.9c-0.7,0.9-1.5,1.8-2.3,2.7
		c-0.2,0.1-0.3,0.3-0.5,0.5c-0.2,0.1-0.3,0.3-0.4,0.4c-0.1,0.1-0.2,0.3-0.4,0.4v0v0c-0.1,0.2-0.1,0.3-0.2,0.4
		c-0.1,0.1-0.2,0.2-0.4,0.2c-0.2,0-0.3,0-0.4,0.1c-0.1,0.1-0.3,0.2-0.4,0.3c-0.5,0.3-0.9,0.5-1.4,0.6c-0.5,0.1-0.9,0.1-1.4,0
		c-1.3-0.2-2.6-0.5-3.8-1c-0.8-0.3-1.6-0.7-2.4-1.2c-0.1-0.1-0.1-0.1-0.3-0.2S52.9,33.1,53,33c0,0-0.1,0-0.1,0s-0.1,0-0.1,0
		c-0.4-0.2-0.6-0.5-0.6-0.9c0-0.1-0.1-0.1-0.1-0.2c0-0.1-0.1-0.1-0.1-0.2c0-0.1,0.1-0.2,0.3-0.3c0,0.1,0,0.2,0,0.3
		c0.2-0.1,0.4-0.2,0.5-0.2c0.2,0,0.4,0,0.5,0c0.3,0,0.6,0.1,0.9,0.3c0.2,0.2,0.5,0.3,0.7,0.4c0.3,0.1,0.7,0.3,1,0.4
		c0.3,0.1,0.7,0.3,1,0.4c0.6,0.2,1.3,0.2,1.9,0c0.6-0.2,1.3-0.5,1.9-0.9c0.7-0.4,1.2-0.9,1.7-1.4c0.5-0.5,1-1.1,1.4-1.7
		c0.3-0.3,0.5-0.7,0.7-1.1s0.5-0.7,0.7-1.1c0.1-0.1,0.1-0.1,0.1-0.2c0,0,0.1-0.1,0.1-0.3c-0.3,0.2-0.5,0.4-0.7,0.5
		c-0.2,0.1-0.4,0.3-0.7,0.4c0.2-0.2,0.3-0.3,0.5-0.4c0.2-0.2,0.3-0.3,0.5-0.4c0.2-0.1,0.3-0.3,0.5-0.4c0.1-0.1,0.1-0.1,0.2-0.2
		c0.1-0.1,0.1-0.2,0.2-0.2L66,25.2c-0.4,0.3-0.8,0.7-1.2,1c-0.4,0.3-0.8,0.7-1.1,1c0.1,0,0.3-0.1,0.5-0.1c-0.1,0.1-0.2,0.2-0.4,0.3
		c-0.1,0.1-0.2,0.2-0.4,0.3l-0.2-0.1c-0.2,0.3-0.5,0.5-0.7,0.7c-0.3,0.2-0.5,0.3-0.9,0.4c-0.1,0-0.1,0.1-0.3,0.1
		c-0.1,0-0.2,0.1-0.3,0.1c-0.5,0.3-0.9,0.5-1.3,0.4c-0.4,0-0.8-0.1-1.2-0.2c-0.2,0-0.4-0.1-0.5-0.1c-0.2,0-0.3-0.1-0.5-0.1
		c-0.5-0.1-1-0.3-1.4-0.8c-0.6-0.7-0.9-1.5-0.9-2.4c0-0.9,0.2-1.9,0.5-2.9c0.6-1.6,1.5-3.2,2.7-4.7c0.3-0.3,0.6-0.7,0.9-1.1
		c0.3-0.4,0.6-0.7,1-1.1c0.1-0.1,0.2-0.2,0.3-0.3c0.1-0.1,0.3-0.2,0.4-0.3c0,0,0.1-0.1,0.1-0.1c0,0,0.1,0,0.1-0.1
		c0.1-0.3,0.2-0.4,0.4-0.5c0.2-0.1,0.4-0.2,0.6-0.3c0.3-0.2,0.5-0.4,0.8-0.6c0.3-0.2,0.5-0.4,0.8-0.5c0.6-0.4,1.3-0.7,1.9-1
		c0.6-0.3,1.3-0.5,2-0.6c0.4-0.1,0.7-0.1,1.1,0s0.6,0.1,1,0.3c0.2,0.1,0.4,0.3,0.6,0.4c0.2,0.1,0.4,0.3,0.6,0.4
		c0.1,0.1,0.2,0.1,0.4,0.1c0.3,0,0.4,0.1,0.4,0.1c0,0,0,0.2,0,0.4c0,0.1,0,0.1,0,0.2c0,0,0,0.1,0,0.2c0.1-0.1,0.2-0.2,0.3-0.3
		c0.1-0.1,0.1-0.1,0.2-0.2c0.3-0.1,0.4,0,0.4,0.1s0.1,0.3,0.1,0.4c0.1,0,0.1,0,0.2,0c0.1,0,0.2,0,0.2,0.1
		C73.8,14.3,74,14.8,74.1,15.4z M58,20.3c0.6-0.4,1-1,1.1-1.6c-0.2,0.3-0.4,0.5-0.6,0.8C58.3,19.7,58.1,20,58,20.3z M60.6,25.5
		c1.2-1,2.4-2,3.5-3c1.1-1,2.1-2.2,2.9-3.5c0.4-0.5,0.8-1.1,1.2-1.6c0.4-0.6,0.8-1.1,1.2-1.6c0.1-0.1,0.1-0.2,0.2-0.4
		c0.1-0.1,0-0.2,0-0.4c-0.9,0.2-1.8,0.6-2.7,1.1c-0.8,0.5-1.7,1.1-2.5,1.7c0.2-0.3,0.5-0.6,0.8-0.8c0.3-0.2,0.6-0.4,0.8-0.7
		c-0.3,0.2-0.7,0.4-1,0.6c-0.3,0.2-0.6,0.4-0.9,0.7c-0.7,0.6-1.4,1.3-2.1,2c-0.7,0.7-1.2,1.5-1.7,2.3c-0.4,0.7-0.8,1.4-1.1,2.1
		c-0.3,0.7-0.5,1.4-0.5,2.1c0,0.1,0,0.2,0,0.3c0,0.1,0,0.2,0.1,0.3C59.4,26.3,60.1,26,60.6,25.5z M59.1,18.7c0.2,0,0.3,0,0.5-0.2
		c0.3-0.2,0.5-0.4,0.7-0.6c0.2-0.2,0.4-0.4,0.6-0.6c0.3-0.2,0.5-0.4,0.8-0.7c0.3-0.2,0.5-0.4,0.8-0.7c0.3-0.3,0.6-0.5,0.9-0.7
		c0.3-0.2,0.6-0.5,1-0.7c0.1-0.1,0.1-0.1,0.2-0.1c0.3-0.2,0.6-0.3,0.8-0.6c0.2-0.2,0.5-0.5,0.7-0.7c-0.1,0-0.1,0-0.2,0
		c-0.1,0-0.1,0-0.2,0c-0.2,0.1-0.4,0.1-0.6,0.2c-0.2,0.1-0.4,0.2-0.6,0.4c-0.1,0.1-0.1,0.1-0.2,0.1c-0.1,0-0.2,0-0.2,0
		c-0.2,0.2-0.4,0.4-0.5,0.5c-0.1,0.1-0.1,0.1-0.3,0.1c-0.1,0-0.2,0.1-0.3,0.1c-0.3,0.3-0.6,0.5-1,0.8c-0.3,0.3-0.6,0.5-0.9,0.8
		c-0.3,0.3-0.6,0.6-0.9,0.9c-0.3,0.3-0.5,0.6-0.7,1C59.5,18.4,59.4,18.5,59.1,18.7z M59.6,20.3c0.3-0.4,0.7-0.8,1-1.1
		c0.3-0.4,0.7-0.7,1-1.1c0.4-0.4,0.8-0.8,1.2-1.2c0.4-0.4,0.9-0.8,1.4-1.1c0.1-0.1,0.2-0.2,0.3-0.3c0,0,0-0.1,0-0.1s0-0.1,0-0.2
		c-0.3,0.2-0.6,0.4-0.8,0.6c-0.3,0.2-0.5,0.4-0.8,0.5c-0.5,0.4-0.9,0.8-1.2,1.2c-0.2,0.2-0.3,0.3-0.4,0.5c-0.1,0.2-0.3,0.4-0.4,0.5
		c-0.3,0.3-0.6,0.7-0.8,1s-0.5,0.6-0.8,0.9c0,0,0,0,0,0c0,0,0,0,0,0C59.5,20.4,59.6,20.3,59.6,20.3z M62,18.7
		c-0.2,0.2-0.4,0.3-0.6,0.5c-0.2,0.2-0.3,0.4-0.3,0.6C61.1,19.9,61,20,61,20.1c-0.4,0.4-0.8,0.9-1,1.5c0.7-0.9,1.4-1.7,2.2-2.5
		c0.8-0.8,1.6-1.5,2.4-2.3c-0.1-0.1-0.1-0.1-0.2-0.1c-0.1,0-0.1-0.1-0.2-0.1c-0.3,0.3-0.5,0.5-0.7,0.7c-0.2,0.2-0.5,0.4-0.7,0.6
		c0,0-0.1,0.1-0.1,0.1c0,0-0.1,0.1,0,0.1c0,0.2-0.1,0.3-0.2,0.4C62.2,18.5,62.1,18.6,62,18.7z M61.7,25.9c0.7-0.5,1.4-1.1,2.1-1.7
		c0.7-0.6,1.3-1.2,1.9-1.9c0.3-0.3,0.5-0.6,0.7-0.8c0.2-0.3,0.5-0.5,0.7-0.8c0.1-0.2,0.3-0.4,0.4-0.7l-0.1-0.1
		c-0.3,0.1-0.4,0.2-0.5,0.3c-0.3,0.4-0.7,0.7-1,1.1c-0.3,0.4-0.6,0.7-0.9,1.2c-0.5,0.6-1.1,1.2-1.7,1.8c-0.6,0.5-1.2,1.1-1.9,1.6
		c-0.1,0.1-0.2,0.2-0.3,0.3c-0.1,0.1-0.2,0.2-0.3,0.3c0,0,0,0,0,0.1c0.2-0.1,0.3-0.2,0.4-0.3C61.5,26.1,61.6,26,61.7,25.9z
		 M63.6,30.8c0.2-0.2,0.3-0.4,0.4-0.6c0.1-0.2,0.4-0.4,0.6-0.4c0,0,0.1-0.1,0.2-0.3c-0.3,0-0.7,0.2-0.9,0.4
		c-0.3,0.2-0.5,0.5-0.7,0.7c-0.3,0.3-0.5,0.5-0.7,0.7c-0.2,0.2-0.4,0.4-0.7,0.6c-0.1,0.1-0.3,0.2-0.4,0.4c-0.1,0.1-0.3,0.2-0.4,0.4
		c0.5-0.2,1-0.4,1.4-0.7S63.3,31.2,63.6,30.8z M64.2,34c-0.1,0.3-0.3,0.3-0.4,0.1C64,34.1,64.1,34,64.2,34z M64.2,31.6
		c0.2-0.1,0.3-0.1,0.3-0.2c0.2-0.2,0.4-0.4,0.6-0.5c0.2-0.2,0.3-0.4,0.4-0.6c-0.3,0.1-0.6,0.3-0.7,0.6c-0.1,0.3-0.4,0.5-0.7,0.6
		C64.2,31.6,64.2,31.6,64.2,31.6z M64.2,27.1C64.2,27.1,64.2,27.1,64.2,27.1L64.2,27.1z M64.5,32.9c0.3-0.2,0.5-0.4,0.7-0.6
		c0.3-0.3,0.5-0.5,0.7-0.7c0.2-0.2,0.4-0.5,0.6-0.8c-0.1,0.1-0.2,0.2-0.4,0.3c-0.1,0.1-0.2,0.2-0.4,0.3c-0.1,0.1-0.3,0.2-0.4,0.4
		c-0.1,0.1-0.3,0.2-0.4,0.4c0,0.2,0,0.4-0.2,0.4c-0.2,0.1-0.3,0.1-0.5,0.2C64.3,33,64.4,33,64.5,32.9z M64.6,25.9
		c0.4-0.3,0.8-0.6,1.2-0.9c0.4-0.3,0.7-0.7,1.1-1.1c0,0-0.1,0-0.1,0c0,0,0,0-0.1,0c-0.3,0.3-0.7,0.7-1.1,1
		C65.2,25.2,64.9,25.5,64.6,25.9C64.6,25.8,64.6,25.9,64.6,25.9z M65,28.6c-0.2,0.3-0.3,0.4-0.3,0.4s0.1,0.1,0.3,0.2
		C65,29,65,28.8,65,28.6z M65.1,33.3c0.3-0.3,0.6-0.7,0.9-1.1c0.3-0.4,0.6-0.7,0.9-1.1c0.1,0,0.1-0.1,0.2-0.1c0.1,0,0.1,0,0.2-0.1
		c-0.3,0.3-0.5,0.5-0.7,0.8c-0.2,0.3-0.5,0.5-0.7,0.8C65.6,32.9,65.4,33.1,65.1,33.3z M65.6,23.7c-0.1,0-0.2,0.1-0.3,0.1
		c-0.1,0-0.1,0.2-0.1,0.4c0.1-0.1,0.1-0.2,0.2-0.3C65.4,23.8,65.5,23.7,65.6,23.7z M66.3,29.4c-0.2-0.1-0.3-0.1-0.5,0
		c-0.1,0.1-0.3,0.2-0.4,0.3c0.2,0.2,0.3,0.2,0.4,0.2C65.9,29.9,66.1,29.7,66.3,29.4z M65.6,23.7c0.3-0.2,0.6-0.5,0.9-0.8
		c0.3-0.3,0.6-0.6,0.8-0.9s0.4-0.6,0.6-0.8c0.2-0.3,0.2-0.5,0.2-0.6h0c-0.3,0.5-0.7,0.9-1,1.3s-0.8,0.8-1.2,1.2
		c-0.1,0.1-0.1,0.1-0.3,0.2C65.5,23.4,65.5,23.5,65.6,23.7z M66.6,30.6c0.2-0.1,0.3-0.2,0.2-0.4c-0.1,0.1-0.1,0.1-0.1,0.2
		C66.6,30.5,66.6,30.6,66.6,30.6z M67.6,30.5c0,0.1-0.1,0.2-0.1,0.3c0,0.1-0.1,0.2-0.1,0.3C67.4,30.8,67.4,30.7,67.6,30.5L67.6,30.5
		z"/>
	<path class="st1" d="M86.5,21.9C86.4,22,86.5,22,86.5,21.9c0,0.2-0.1,0.3-0.1,0.5c0,0.1-0.1,0.3-0.2,0.4c-0.1,0.2-0.2,0.4-0.3,0.6
		c-0.1,0.2-0.2,0.4-0.3,0.5c-0.2,0.3-0.3,0.5-0.5,0.6c-0.7,0.7-1.3,1.3-2,1.9c-0.7,0.6-1.5,1.1-2.3,1.6c-0.2,0.1-0.4,0.2-0.6,0.3
		s-0.4,0.2-0.6,0.2c-0.5,0.1-1.1,0.2-1.6,0.3c-0.5,0.1-1,0.1-1.6,0.1c-0.9-0.1-1.7-0.3-2.3-0.8c-0.6-0.5-1-1.1-1.3-2
		c-0.2-0.5-0.3-1-0.3-1.6c0-0.5,0-1.1,0-1.7c0.2-1.3,0.6-2.6,1.1-3.9c0.5-1.3,1.2-2.5,2-3.7c0.5-0.7,1.1-1.3,1.7-1.8
		c0.6-0.5,1.3-1,2.1-1.3c0.9-0.4,1.8-0.5,2.6-0.3c1.2,0.2,2.2,0.6,3.2,1.4c0.1,0.1,0.1,0.1,0.3,0.2s0.2,0.2,0.3,0.3
		c0.6,0.6,0.6,1.3,0,2.2c-0.3,0.6-0.7,1.2-1.1,1.8c-0.4,0.6-0.9,1.1-1.4,1.7c-0.2,0.2-0.4,0.4-0.5,0.6c-0.2,0.2-0.3,0.4-0.5,0.6
		c0,0.3-0.1,0.4-0.4,0.4c-0.2,0.2-0.3,0.3-0.4,0.5c-0.1,0.2-0.3,0.3-0.4,0.5c-0.4,0.4-0.9,0.9-1.3,1.3c-0.5,0.4-0.9,0.8-1.4,1.3
		c-0.1,0.1-0.2,0.1-0.3,0.2c-0.1,0.1-0.2,0.1-0.4,0.2c-0.1,0-0.3,0-0.5,0c-0.1,0.2-0.1,0.4-0.1,0.5c0,0.5,0.1,0.9,0.4,1
		c0.2,0.1,0.3,0.1,0.5,0c0.2-0.1,0.3-0.2,0.5-0.3c1.6-0.8,3.1-1.9,4.5-3.3c0.2-0.2,0.3-0.3,0.4-0.5c0.1-0.2,0.2-0.3,0.4-0.5
		c0.1-0.1,0.2-0.2,0.3-0.3c0.1-0.1,0.2-0.2,0.3-0.2c-0.1,0.3-0.2,0.6-0.3,0.8c-0.1,0.3-0.2,0.5-0.3,0.8c0.2-0.2,0.3-0.3,0.4-0.4
		c0.1-0.1,0.2-0.3,0.4-0.4c0.2-0.1,0.3-0.3,0.3-0.4c0.1-0.2,0.2-0.3,0.4-0.4c0.1,0.2,0.1,0.3,0,0.5c-0.1,0.2-0.2,0.3-0.1,0.5
		c0.1-0.2,0.2-0.3,0.4-0.4c0.1-0.1,0.2-0.3,0.3-0.4c0.2,0.1,0.3,0.2,0.3,0.3c0,0.1-0.1,0.4-0.2,0.8c0.1-0.1,0.1-0.2,0.2-0.4
		S86.4,22.1,86.5,21.9z M75.8,17.2c0.9-1.1,1.8-2.1,2.6-3l-0.1-0.1c-0.5,0.3-0.9,0.6-1.3,1.1S76.2,16.3,75.8,17.2z M77.1,17.5
		c0.3-0.3,0.5-0.7,0.7-1c0.2-0.3,0.4-0.6,0.6-1c-0.1,0-0.1,0-0.1,0c-0.6,0.6-1,1.2-1.4,2C77,17.5,77.1,17.5,77.1,17.5z M77.3,23.4
		c0.1-0.1,0.1-0.1,0.2-0.2s0.1-0.1,0.1-0.2c0.5-0.5,1-1.1,1.5-1.6c0.5-0.5,0.9-1,1.4-1.6c0.4-0.4,0.8-0.9,1.1-1.4
		c0.4-0.5,0.7-1,1.1-1.4c0.1-0.1,0.2-0.3,0.3-0.4c0.1-0.1,0.1-0.3,0-0.4c-0.2,0.1-0.3,0.2-0.4,0.3c-0.1,0.1-0.1,0.3-0.2,0.4
		c-0.3,0.4-0.5,0.7-0.8,1.1c-0.3,0.4-0.5,0.7-0.8,1.1c-0.5,0.6-1.1,1.2-1.6,1.8c-0.5,0.6-1.1,1.2-1.6,1.8c-0.1,0.1-0.1,0.2-0.2,0.3
		S77.2,23.2,77.3,23.4z M80.6,15.5c-0.3,0.2-0.7,0.5-1,1c-0.4,0.5-0.7,1-1,1.5c-0.3,0.5-0.6,1.1-0.8,1.7c-0.2,0.6-0.4,1.1-0.4,1.5
		c0.3-1,0.8-2,1.3-2.9C79.2,17.3,79.8,16.4,80.6,15.5z M77.6,21.4c-0.1,0.1-0.1,0.1-0.1,0.2s0,0.2,0,0.4c0.2-0.3,0.4-0.5,0.6-0.7
		c0.2-0.2,0.3-0.4,0.5-0.6c0.6-0.7,1.2-1.4,1.8-2.1s1.1-1.4,1.6-2.2c0.3-0.4,0.5-0.9,0.8-1.5c0.1-0.5-0.1-0.7-0.7-0.4
		c-0.1,0.1-0.2,0.1-0.3,0.2c-0.7,0.5-1.3,1.1-1.8,1.9c-0.5,0.8-1,1.5-1.4,2.3C78.2,19.8,77.8,20.6,77.6,21.4z M79.8,15.5
		c-0.4,0.3-0.7,0.7-1,1.2c-0.3,0.4-0.5,0.9-0.6,1.3c0.3-0.4,0.5-0.8,0.8-1.2C79.3,16.3,79.6,15.9,79.8,15.5z M83.2,19
		c0.1-0.1,0.2-0.2,0.3-0.3c0.1-0.1,0.2-0.2,0.2-0.4C83.5,18.5,83.3,18.8,83.2,19z M84,16.4c-0.2,0.2-0.3,0.4-0.4,0.6
		c-0.1,0.2-0.2,0.4-0.4,0.6c0.1,0,0.1,0,0.1,0c0.1-0.2,0.2-0.4,0.4-0.6c0.1-0.2,0.2-0.4,0.4-0.6C84.1,16.4,84.1,16.4,84,16.4
		C84.1,16.4,84.1,16.4,84,16.4z M85,16.6c-0.2,0.3-0.4,0.6-0.6,0.8c-0.2,0.3-0.4,0.6-0.6,0.8c0.3-0.2,0.6-0.5,0.8-0.8
		c0.2-0.3,0.4-0.6,0.5-0.9C85.1,16.6,85.1,16.6,85,16.6z M85,18.1C84.9,18.1,84.9,18.1,85,18.1c-0.1,0-0.1,0-0.1,0
		c0.2-0.3,0.4-0.7,0.7-1.1c0.2-0.4,0.5-0.7,0.7-1.1c0,0,0.1,0,0.1,0c-0.2,0.4-0.4,0.7-0.7,1.1C85.4,17.4,85.2,17.7,85,18.1z"/>
	<path class="st1" d="M112.5,9.8c-0.2,0.8-0.4,1.6-0.7,2.3c-0.3,0.7-0.8,1.5-1.3,2.2c-0.6,0.9-1.3,1.7-2.1,2.5s-1.5,1.5-2.3,2.2
		c-0.4,0.3-0.8,0.6-1.2,1c-0.4,0.3-0.9,0.5-1.4,0.5c0,0.4-0.2,0.6-0.4,0.7s-0.5,0.2-0.7,0.3c-0.6,0.3-1.1,0.6-1.7,0.8
		c-0.6,0.3-1.2,0.5-1.8,0.8c-0.3,0.1-0.6,0.3-0.8,0.5c-0.2,0.1-0.3,0.2-0.4,0.3S97.4,24,97.2,24c-0.3,0-0.6,0.1-0.9,0.3
		c-0.3,0.2-0.6,0.2-0.9,0.2c-0.3,0.4-0.5,0.8-0.5,1.1c-0.1,0.4-0.2,0.7-0.3,1.1c0.1-0.3,0.1-0.5,0.2-0.8s0.1-0.5,0.2-0.8
		c-0.3,0.8-0.5,1.5-0.7,2.3c-0.2,0.8-0.3,1.5-0.4,2.3c-0.1,0.5-0.1,0.9-0.2,1.4s-0.1,0.9-0.1,1.4c-0.1,0.5,0,1,0.1,1.5
		c0.1,0.3,0,0.7-0.4,1C93,35,92.8,35,92.6,35c-0.2,0-0.4,0-0.7,0c-0.1,0.1-0.2,0.2-0.3,0.3c-0.1,0.1-0.2,0.2-0.4,0.4
		c-0.1-0.1-0.1-0.1-0.2-0.2c-0.1-0.1-0.1-0.1-0.2-0.1c-0.5-0.2-0.8-0.6-0.9-1.1c-0.1-0.5-0.1-1-0.2-1.5c-0.1-0.8-0.1-1.6,0-2.3
		c0.1-0.8,0.2-1.6,0.4-2.4c0.1-0.4,0.1-0.8,0.2-1.1c0.1-0.4,0.1-0.8,0.2-1.1c0-0.1,0-0.1,0-0.2c0-0.1,0-0.2,0-0.4
		c-0.3,0-0.5,0-0.7,0s-0.5,0-0.7-0.1c-0.1,0-0.1,0-0.2,0c-0.1,0-0.1,0-0.1,0c-0.2-0.1-0.4-0.2-0.5-0.3c-0.1-0.1-0.3-0.2-0.6-0.1
		c0-0.2-0.1-0.3-0.3-0.4c-0.2-0.1-0.2-0.2-0.2-0.5c0-0.1,0-0.2,0-0.3c0-0.1,0-0.2-0.1-0.3c0.1,0,0.1,0,0.2,0c0,0,0.1,0,0.2,0
		c0.3-0.2,0.5-0.4,0.6-0.6c0.2-0.2,0.4-0.4,0.6-0.6c0.1-0.1,0.1-0.1,0.2-0.1s0.2,0.1,0.2,0.2c0,0.1,0,0.1,0,0.2c0,0,0,0.1,0,0.2
		c0.1-0.1,0.2-0.1,0.4-0.2c0.1-0.1,0.2-0.1,0.3-0.2c0.2,0,0.4,0.1,0.6,0.1c0.2,0,0.3,0,0.5,0c0.3-0.1,0.5-0.3,0.6-0.6
		c0.1-0.3,0.1-0.5,0.2-0.8c0-0.3,0.1-0.5,0.2-0.8c0.1-0.3,0-0.5-0.4-0.5c0,0.1,0.1,0.3,0.2,0.5c-0.1,0.1-0.2,0.3-0.4,0.5L91,20.5
		c-0.1-0.3-0.3-0.4-0.6-0.5c-0.2-0.1-0.4-0.2-0.5-0.5c-0.2-0.3-0.4-0.6-0.5-0.9c-0.2-0.3-0.3-0.6-0.6-1c0.1-0.1,0.1-0.1,0.2-0.1
		c0.1,0,0.1-0.1,0.2-0.1c0,0,0,0,0,0c0,0,0,0,0,0s0,0,0,0c-0.2,0.1-0.3,0.2-0.4,0.2c-0.1,0-0.2,0-0.3-0.1c-0.1,0-0.1-0.1-0.2-0.2
		c-0.1-0.1-0.1-0.1-0.2-0.2c0,0,0-0.1,0-0.1c0-0.1,0-0.2,0.1-0.2c0.1-0.1,0.1-0.1,0.2-0.2s0.1-0.1,0.2-0.2c0-0.1,0-0.1,0-0.2
		c-0.5,0.3-1,0.3-1.4,0c-0.6-0.5-1.1-1.1-1.6-1.7c-0.3-0.4-0.6-0.9-0.7-1.5c-0.2-0.5-0.1-1,0-1.5c0.2-0.5,0.5-1,0.8-1.6
		c0.5-0.7,1.1-1.3,1.8-1.8c0.7-0.5,1.4-1,2.1-1.4c0.8-0.4,1.5-0.8,2.3-1.2c0.8-0.3,1.6-0.6,2.4-0.9c1.6-0.5,3.2-0.9,4.8-1.2
		c1.6-0.3,3.1-0.4,4.7-0.3c1.3,0.1,2.5,0.3,3.6,0.6c1.1,0.3,2.1,0.8,3,1.6c0.6,0.4,1.1,1,1.5,1.6c0.4,0.6,0.6,1.3,0.5,2
		c-0.1,0.7-0.3,1.4-0.6,2.2c-1,2.1-2.2,3.9-3.7,5.6c-0.1,0.1-0.2,0.2-0.3,0.3c-0.1,0.1-0.1,0.2-0.2,0.3c0.1-0.1,0.2-0.1,0.4-0.2
		c0.1-0.1,0.2-0.1,0.3-0.2c0.7-0.8,1.4-1.6,2-2.5c0.6-0.8,1.1-1.8,1.5-2.7c0.1-0.3,0.3-0.6,0.4-0.8S112.3,10.1,112.5,9.8z
		 M86.3,11.1c0.6-0.4,1-1,1.3-1.6c-0.4,0.2-0.7,0.4-0.8,0.7C86.6,10.4,86.4,10.8,86.3,11.1z M87.5,22.6c-0.2,0.2-0.3,0.4-0.3,0.7
		l-0.3,0.3c0-0.2,0-0.4,0-0.5c-0.1-0.1,0-0.3,0.2-0.4c0.1-0.1,0.2-0.2,0.3-0.4c0.1-0.1,0.2-0.2,0.3-0.4h0.1
		c-0.1,0.1-0.1,0.2-0.2,0.4S87.6,22.5,87.5,22.6z M88.3,15.7c0,0,0.1,0,0.2-0.1c-0.1-0.1-0.1-0.1-0.1-0.1c-0.1,0-0.2,0-0.2,0.1
		C88.2,15.6,88.2,15.7,88.3,15.7z M89.6,10.7c-0.1,0.1-0.1,0.2-0.1,0.3s-0.1,0.2-0.1,0.3h0.2c0-0.1,0.1-0.1,0.1-0.2
		C89.6,10.9,89.6,10.8,89.6,10.7C89.6,10.8,89.6,10.8,89.6,10.7C89.6,10.7,89.6,10.7,89.6,10.7z M89.4,16.2c0.1,0,0.2,0.1,0.2,0.1
		c0.1,0,0.2,0,0.3,0.1c-0.1-0.2-0.1-0.3-0.2-0.3C89.7,16,89.5,16.1,89.4,16.2z M89.9,11.7c0.2-0.2,0.3-0.3,0.3-0.4
		c0-0.1,0.1-0.2,0.1-0.5c-0.1,0.2-0.2,0.3-0.3,0.4s-0.2,0.2-0.2,0.3C89.8,11.7,89.8,11.7,89.9,11.7C89.8,11.7,89.8,11.7,89.9,11.7z
		 M97.5,19.1c0.5-0.4,1.1-0.8,1.6-1.2c0.6-0.4,1.1-0.8,1.6-1.2c0.8-0.7,1.7-1.5,2.5-2.3s1.5-1.7,2.1-2.6c0.4-0.5,0.7-1.1,1-1.6
		c0.3-0.5,0.5-1.1,0.6-1.6c0.1-0.6,0-1.1-0.1-1.4c-0.2-0.3-0.5-0.6-1-0.8c-0.4-0.2-0.9-0.2-1.3-0.3c-0.5,0-0.9,0-1.4,0.1
		c-0.8,0.1-1.7,0.2-2.5,0.4c-0.9,0.2-1.7,0.4-2.6,0.7c-1.8,0.5-3.5,1.2-5.1,2.1c-0.5,0.3-1,0.5-1.4,0.9c-0.4,0.3-0.8,0.8-1.2,1.3
		c-0.3,0.4-0.4,0.8-0.2,1.2c0.2,0.3,0.2,0.6,0,0.9c0.1,0,0.2,0,0.3,0c0.1,0,0.2,0,0.2,0c0.1,0.2,0.2,0.3,0.3,0.4
		c0.1,0.1,0.3,0.2,0.4,0.3c0.1,0.1,0.2,0.2,0.2,0.4c0,0.2,0,0.4-0.1,0.6c0.1,0,0.2,0,0.4,0c0.1,0,0.2,0,0.3,0
		c0.3,0.2,0.4,0.3,0.5,0.6c0.1,0.3,0.3,0.4,0.6,0.3c0.1-0.3,0.1-0.5,0.2-0.7c0.3-0.8,0.6-1.6,0.9-2.4c0.3-0.8,0.6-1.6,1-2.4
		c0.2-0.4,0.4-0.7,0.6-1.1c0.2-0.3,0.5-0.7,0.7-1c0.1-0.2,0.2-0.3,0.3-0.4c0.1-0.1,0.3-0.2,0.5-0.2c0.1,0.3,0.1,0.5-0.1,0.8
		c-0.1,0.2-0.3,0.5-0.5,0.7c-0.3,0.4-0.5,0.8-0.4,1.3c0.1-0.1,0.1-0.2,0.2-0.3c0.1-0.1,0.1-0.1,0.2-0.2c0.2-0.3,0.3-0.5,0.5-0.8
		c0.2-0.3,0.4-0.5,0.5-0.8c0.1-0.2,0.2-0.3,0.4-0.4s0.3-0.2,0.5-0.1c0,0.1,0,0.2,0,0.3c0,0.1,0,0.2,0,0.3c0.2-0.2,0.3-0.3,0.5-0.4
		c0.1,0,0.2,0,0.3,0.1c0.1,0.1,0.1,0.2,0.1,0.3s0.1,0.2,0.1,0.2c0.1,0.1,0.2,0.1,0.4,0c-0.7,1.8-1.4,3.6-2.1,5.3
		c-0.7,1.8-1.3,3.6-1.8,5.4c0.3-0.2,0.5-0.3,0.7-0.4S97.3,19.3,97.5,19.1z M90.5,15.2c0.1-0.1,0.1-0.1,0.2-0.1c0.1,0,0.1,0,0.2-0.1
		c-0.1-0.1-0.1-0.1,0-0.1c-0.1,0-0.2,0-0.3,0.1V15.2z M93.9,30.3c0-0.1,0-0.1,0-0.2c0-0.1,0-0.2,0-0.3c0.1-0.2,0.1-0.4,0.2-0.6
		c0-0.2,0.1-0.4,0.2-0.6h0.1C94.1,29.2,94,29.7,93.9,30.3L93.9,30.3z M96.7,19c0.1-0.2,0.1-0.3,0.1-0.4c0-0.1,0.1-0.2,0.1-0.4H97
		c-0.1,0.2-0.1,0.3-0.1,0.4C96.9,18.7,96.8,18.8,96.7,19L96.7,19z M97.3,17.1c0.1-0.1,0.1-0.2,0.1-0.3h0.1
		C97.5,16.8,97.5,16.9,97.3,17.1L97.3,17.1z M97.5,11.3c0.1-0.2,0.2-0.4,0.2-0.5c0.1-0.2,0.1-0.4,0.2-0.5h-0.1
		c-0.1,0.2-0.1,0.3-0.2,0.5c-0.1,0.2-0.2,0.4-0.2,0.5C97.5,11.2,97.5,11.2,97.5,11.3z M97.9,15.4c0.2-0.4,0.3-0.8,0.5-1.2
		c0.2-0.4,0.3-0.8,0.5-1.2c0-0.1,0.1-0.1,0.1-0.2c0,0,0.1-0.1,0.2-0.2c-0.2,0.5-0.4,1.1-0.6,1.6c-0.2,0.5-0.4,1-0.6,1.6
		c-0.1,0.1-0.1,0.2-0.1,0.3h-0.1c0-0.1,0.1-0.2,0.1-0.4C97.8,15.7,97.9,15.5,97.9,15.4z M97.8,23c0.1-0.2,0.1-0.3,0.1-0.4
		c0-0.1-0.1-0.2-0.3-0.2c0,0.1,0,0.1,0,0.2C97.7,22.7,97.7,22.8,97.8,23z M98.9,10.9c0-0.1,0.1-0.1,0.1-0.2c0-0.1,0-0.2,0.1-0.2H99
		C98.9,10.6,98.9,10.8,98.9,10.9L98.9,10.9z M99.4,21.9C99.4,21.8,99.4,21.8,99.4,21.9c0-0.1,0-0.1,0-0.1h-0.3c0,0,0,0.1,0,0.1
		C99.1,21.8,99.2,21.9,99.4,21.9z M99.2,12.6c0.1-0.2,0.1-0.4,0.1-0.6c0-0.2,0.1-0.4,0.1-0.6h0.1c-0.1,0.1-0.1,0.2-0.1,0.3
		s-0.1,0.2-0.1,0.2c0,0.1-0.1,0.2-0.1,0.3C99.2,12.4,99.2,12.5,99.2,12.6L99.2,12.6z M100,10.2C100,10.2,100,10.2,100,10.2
		c0,0.1,0,0.2,0,0.3c0,0.1-0.1,0.2-0.1,0.3h-0.1L100,10.2z M103.1,16.2c0.4-0.2,0.8-0.5,1.2-0.9c0.4-0.4,0.8-0.8,1.2-1.2
		c0.4-0.4,0.7-0.9,1-1.3s0.5-0.9,0.7-1.3c-0.6,0.8-1.2,1.7-1.9,2.4S103.9,15.4,103.1,16.2z M107.3,17.6c0.1-0.1,0.2-0.3,0.3-0.5
		C107.3,17.2,107.3,17.4,107.3,17.6z M107.7,13.4C107.8,13.4,107.8,13.4,107.7,13.4c0.1,0,0.1,0.1,0.1,0.1c0.2-0.2,0.3-0.4,0.4-0.6
		c0.1-0.2,0.3-0.4,0.4-0.6c0,0-0.1,0-0.1,0c0,0,0,0-0.1,0c-0.2,0.2-0.3,0.4-0.4,0.6S107.9,13.2,107.7,13.4z M110.3,12.3
		c-0.3,0.4-0.6,0.9-0.9,1.3s-0.6,0.9-0.9,1.3c0.4-0.4,0.8-0.8,1.1-1.2C109.9,13.2,110.2,12.8,110.3,12.3z"/>
	<path class="st1" d="M124.2,28c-0.2,0.2-0.3,0.4-0.3,0.5c0,0.2-0.2,0.3-0.4,0.5c-0.1,0.1-0.2,0.1-0.4,0.2s-0.2,0.1-0.4,0
		c-0.3-0.1-0.5-0.1-0.7-0.1c-0.2,0-0.5,0-0.8,0.1c-0.2,0.1-0.4,0.1-0.5,0s-0.3-0.2-0.4-0.3c-0.6-0.5-0.9-1.1-1.1-1.9
		c-0.3-1-0.3-2.1-0.2-3.2v-0.4h-0.1c-0.5,0.4-1,0.8-1.5,1.2c-0.5,0.4-1,0.8-1.5,1.2c-0.7,0.5-1.3,0.9-2,1.3
		c-0.7,0.4-1.4,0.7-2.1,1.1c-0.7,0.3-1.3,0.3-1.8,0.2h-0.6c-0.8,0.1-1.4-0.1-1.8-0.5c-0.4-0.4-0.6-1-0.5-1.8c0.1-0.5,0.2-1,0.4-1.5
		c0.2-0.5,0.4-1,0.7-1.5c0.4-0.8,0.9-1.6,1.5-2.2c0.5-0.7,1.1-1.3,1.8-2c1-1,2.1-2,3.2-2.9c1.1-0.9,2.3-1.7,3.5-2.5
		c0.6-0.4,1.3-0.8,2-1s1.4-0.5,2.1-0.6c0.1,0,0.3,0,0.4,0c0.1,0,0.3,0.1,0.4,0.1c0.1,0,0.2,0,0.3,0s0.1,0,0.2,0c0.4,0,0.7,0.1,1,0.3
		c0.2,0.2,0.5,0.4,0.7,0.7c0.1,0.1,0.1,0.2,0,0.4c-0.1,0.1-0.2,0.2-0.2,0.4c0.2-0.1,0.3-0.2,0.4-0.3c0.1-0.1,0.2-0.2,0.4-0.3
		c0.1,0.1,0.1,0.1,0.2,0.2c0.1,0.1,0.1,0.2,0.2,0.3c0.4-0.2,0.7-0.1,0.8,0.3c0.1,0.1,0.1,0.2,0.1,0.3c0,0.1,0.1,0.2,0.3,0.2
		c0,0,0,0,0,0.1c0,0.1,0,0.2-0.1,0.2c-0.1,0.3-0.2,0.5-0.3,0.7c-0.1,0.2-0.2,0.4-0.4,0.6c-0.3,0.7-0.7,1.4-1.1,2.2
		c-0.4,0.7-0.8,1.4-1.1,2.2c-0.2,0.3-0.3,0.6-0.4,0.8s-0.2,0.6-0.2,0.9c0.1-0.3,0.2-0.5,0.3-0.7s0.2-0.4,0.3-0.6h0.1
		c-0.3,0.9-0.7,1.8-0.9,2.7c-0.1-0.1-0.1-0.2-0.1-0.3c-0.1,0.2-0.1,0.3-0.2,0.4c-0.1,0.1-0.1,0.2-0.1,0.3c-0.1,0.3-0.1,0.7-0.1,1.1
		c0,0.4,0,0.8-0.1,1.1c0,0.2,0,0.4,0,0.6c0,0.2,0.1,0.3,0.4,0.4c0,0,0,0.1,0,0.2s0,0.1,0,0.2c0.3-0.1,0.5-0.1,0.6,0s0.1,0.2,0.1,0.4
		H124.2z M108.7,23.5c0.9-1.3,1.9-2.5,2.9-3.6c1-1.1,2.1-2.2,3.3-3.2c-0.6,0.3-1.2,0.8-1.9,1.4c-0.7,0.6-1.3,1.2-1.9,1.9
		s-1.1,1.3-1.6,2C109,22.5,108.8,23,108.7,23.5z M109.7,23.7c0.2-0.3,0.3-0.5,0.5-0.8c0.2-0.3,0.3-0.5,0.5-0.8l-0.1,0
		c-0.2,0.3-0.3,0.5-0.5,0.8C109.9,23.1,109.7,23.4,109.7,23.7L109.7,23.7z M122.6,14.7c0.1-0.1,0.1-0.1,0.1-0.2
		c0-0.1,0.1-0.1,0.1-0.2c-0.5,0.1-0.9,0.2-1.3,0.4c-0.4,0.2-0.8,0.5-1.2,0.7c-0.6,0.4-1.2,0.8-1.8,1.2c-0.6,0.4-1.2,0.9-1.8,1.3
		c-0.3,0.3-0.7,0.7-1.1,0.9h-0.2c-0.1,0.1-0.2,0.1-0.3,0.2c-0.1,0.1-0.2,0.2-0.3,0.2h-0.1h0.1c-0.3,0.2-0.5,0.4-0.7,0.5
		c-0.2,0.2-0.4,0.4-0.6,0.6c-0.5,0.5-0.9,0.9-1.3,1.4c-0.4,0.5-0.8,1-1.2,1.5c-0.6,0.7-0.9,1.4-1,2.3c0,0.1,0,0.2,0,0.3
		c0,0.1,0,0.2,0,0.4c0.3-0.2,0.6-0.4,0.9-0.5c0.3-0.2,0.5-0.3,0.8-0.5c1.5-1,2.9-2.2,4.1-3.4c1.2-1.2,2.3-2.4,3.4-3.6
		C120.5,17.2,121.6,16,122.6,14.7z M113,21.6c-0.5,0.6-1,1.3-1.5,1.9s-0.8,1.3-1.2,2c0.3-0.7,0.6-1.4,1.1-2S112.4,22.2,113,21.6z
		 M112.1,21.7c-0.3,0.3-0.7,0.7-0.9,1c-0.3,0.3-0.5,0.7-0.6,1.2c0.3-0.3,0.5-0.7,0.8-1.1C111.6,22.4,111.8,22.1,112.1,21.7z
		 M113.5,20.2C113.4,20.2,113.4,20.2,113.5,20.2C113.4,20.2,113.4,20.2,113.5,20.2c-0.1,0.1-0.2,0.1-0.2,0.1c0,0,0,0,0.1,0
		L113.5,20.2L113.5,20.2z M115.8,18.9c-0.2,0.1-0.3,0.2-0.4,0.4c-0.1,0.1-0.2,0.2-0.4,0.4c0-0.1,0-0.2,0-0.3
		c0.1-0.1,0.2-0.1,0.3-0.2c0.1-0.1,0.2-0.2,0.3-0.2H115.8z M120.5,18.7c0.1-0.1,0.1-0.1,0.2-0.3c0.1-0.1,0.1-0.2,0.2-0.4l0,0
		c0,0-0.1,0-0.1,0c-0.7,0.8-1.4,1.5-2.1,2.3c-0.7,0.8-1.4,1.5-2.1,2.2l0,0.1c0.1,0,0.1,0,0.1,0c0,0,0.1-0.1,0.1-0.1
		c0.6-0.6,1.2-1.2,1.8-1.9C119.2,19.9,119.8,19.3,120.5,18.7z M124.1,14.3c0.3-0.1,0.5-0.3,0.5-0.5c-0.1,0.1-0.2,0.2-0.2,0.3
		C124.3,14.1,124.3,14.2,124.1,14.3z M125.2,18.8c0.1-0.1,0.2-0.1,0.3-0.1c-0.3,0.4-0.5,0.8-0.8,1.3h0c0-0.1,0-0.1,0-0.2
		c0,0,0-0.1,0.1-0.2c0.1-0.1,0.1-0.3,0.2-0.4C125,19.1,125.1,18.9,125.2,18.8z M125,17.6L125,17.6C125.1,17.5,125.1,17.5,125,17.6
		c0-0.1,0-0.1,0-0.1V17.6z M126.1,17.2c0,0.3-0.1,0.5-0.2,0.7c-0.1,0.2-0.3,0.4-0.4,0.6c0-0.3,0-0.5,0.1-0.7
		C125.8,17.7,125.9,17.5,126.1,17.2z M126.5,16.5c0-0.1,0.1-0.1,0.1-0.2c0,0,0-0.1,0-0.1h0.1c-0.1,0.1-0.1,0.1-0.1,0.1
		S126.6,16.5,126.5,16.5L126.5,16.5z"/>
	<path class="st1" d="M134.1,14.8c-0.3,1.1-0.7,2.3-1,3.4c-0.3,1.1-0.7,2.2-1,3.3c0,0.2-0.1,0.3-0.1,0.4s0,0.3-0.1,0.4
		c-0.2,0.5-0.3,0.9-0.4,1.4c-0.1,0.5-0.3,1-0.4,1.4c-0.2,0.7-0.4,1.4-0.5,2.1c-0.2,0.7-0.3,1.4-0.5,2.1c0,0.1,0,0.1,0,0.1
		c0,0,0,0.1,0,0.1c-0.2-0.1-0.2-0.2-0.2-0.3s0-0.3,0-0.4c-0.1,0.2-0.2,0.4-0.4,0.6c-0.1,0.2-0.3,0.3-0.5,0.4
		c-0.1-0.1-0.1-0.2-0.1-0.3c0-0.1-0.1-0.2-0.1-0.3c-0.1,0.4-0.1,0.7-0.1,1c0,0.2-0.2,0.4-0.4,0.4c-0.3,0.1-0.4,0-0.4-0.3
		c0-0.2,0-0.3,0-0.4c0-0.1,0-0.3,0.1-0.4c0.2-1.1,0.4-2.2,0.7-3.3c0.2-1.1,0.5-2.2,0.7-3.3c0.6-2.8,1.3-5.5,2.1-8.2
		c0.8-2.7,1.6-5.4,2.4-8.2c0.1-0.3,0.2-0.7,0.4-1c0.1-0.3,0.2-0.7,0.4-1c0.1-0.2,0.1-0.3,0.1-0.4c0-0.1-0.1-0.3-0.2-0.4
		c-0.1,0.3-0.2,0.6-0.3,0.9s-0.2,0.5-0.3,0.8c-0.3,1-0.5,2-0.8,2.9c-0.3,1-0.6,1.9-0.9,2.9c-0.5,1.9-1,3.8-1.6,5.6
		c-0.5,1.9-1,3.8-1.4,5.7l-1.1,4.9c0,0.3-0.1,0.7-0.1,1.1s-0.1,0.7-0.1,1.1c0,0.1,0,0.1,0,0.2s0,0.2,0,0.2c0,0.3-0.1,0.4-0.3,0.4
		c-0.2,0.1-0.3,0-0.4-0.1c-0.1-0.4-0.1-0.8-0.1-1.1c0.1-0.5,0.2-1,0.3-1.6c0.1-0.5,0.2-1,0.3-1.6c0.3-1.4,0.6-2.8,0.9-4.2
		c0.3-1.4,0.6-2.8,1-4.2c0.5-2.2,1.1-4.3,1.7-6.4c0.6-2.1,1.3-4.3,2-6.4c0.1-0.3,0.2-0.6,0.3-0.9c0.1-0.3,0.2-0.6,0.4-0.9
		c0.1-0.2,0.2-0.3,0.3-0.5c0.1-0.2,0.3-0.3,0.4-0.5c0.3-0.3,0.5-0.3,0.6,0.1c0.1,0.2,0.1,0.3,0.1,0.5h0c0.1-0.2,0.2-0.3,0.3-0.4
		s0.2-0.3,0.4-0.4h0.3c0.1,0.3,0.1,0.7,0,1s-0.2,0.7-0.3,1c0.1-0.3,0.2-0.5,0.4-0.8c0.1-0.2,0.2-0.4,0.2-0.7s0.1-0.4,0.2-0.6
		c0.3-0.1,0.5,0,0.6,0.1c0.1,0.1,0.2,0.3,0.3,0.4c0.1,0,0.1-0.1,0.2-0.1c0,0,0.1-0.1,0.2-0.1l0.1,0.1c0,0.2,0,0.3,0,0.5
		c0,0.2-0.1,0.3-0.1,0.5c-0.6,1.9-1.2,3.8-1.8,5.7C135.4,10.9,134.8,12.8,134.1,14.8z M137.8,4.2c0.1-0.2,0.1-0.5,0.2-0.7
		c0.1-0.2,0.2-0.4,0.3-0.7c-0.1,0.3-0.2,0.7-0.2,1c-0.1,0.3-0.1,0.6-0.2,0.9c-0.4,1.3-0.8,2.5-1.2,3.7c-0.4,1.2-0.8,2.4-1.2,3.6
		c-0.8,2.4-1.6,4.9-2.3,7.3c-0.7,2.4-1.4,4.9-2,7.3c-0.1,0.4-0.2,0.8-0.3,1.2c-0.1,0.4-0.2,0.8-0.4,1.2c0.1-0.3,0.1-0.6,0.2-0.9
		s0.1-0.6,0.2-0.9c0.2-0.7,0.4-1.5,0.6-2.2c0.2-0.8,0.4-1.5,0.6-2.2c0-0.3,0-0.4,0-0.5c0.1-0.3,0.2-0.7,0.4-1c0.1-0.3,0.2-0.7,0.4-1
		c0.5-1.5,0.9-2.9,1.4-4.3c0.4-1.4,0.9-2.9,1.4-4.3c0.4-1.2,0.8-2.4,1.2-3.6C137,6.7,137.4,5.5,137.8,4.2z M134.5,7.6
		c-0.1,0.1-0.1,0.2-0.1,0.3c0,0.1,0,0.1-0.1,0.2c0.3-0.6,0.5-1.2,0.7-1.8c0.2-0.6,0.4-1.2,0.6-1.8c0-0.1,0-0.3,0-0.6
		c-0.1,0.3-0.1,0.4-0.1,0.5c-0.2,0.5-0.4,0.9-0.6,1.4c-0.2,0.5-0.4,0.9-0.4,1.4c0,0.1,0,0.1,0,0.2C134.5,7.4,134.5,7.5,134.5,7.6z
		 M134.8,11.1c0-0.1,0-0.1,0-0.2s0-0.1,0-0.2l-0.1,0c0,0.1,0,0.1,0,0.2S134.7,11,134.8,11.1L134.8,11.1z M137.1,4.2
		c-0.3,0.8-0.7,1.6-0.9,2.5c-0.3,0.8-0.5,1.7-0.8,2.6c0.4-0.8,0.7-1.7,1-2.5C136.6,5.9,136.8,5,137.1,4.2z"/>
	<path class="st1" d="M147.2,26c-0.2,0.4-0.5,0.8-0.8,1.1c-0.3,0.3-0.7,0.6-1.1,0.8c-1,0.6-2,0.9-3.1,0.9c-1.6,0.1-3-0.1-4.3-0.6
		c-0.8-0.3-1.4-0.6-1.8-1.2c-0.5-0.5-0.9-1.1-1.2-1.8c-0.3-0.5-0.2-1.1,0.1-1.6c0.3-0.5,0.8-0.9,1.4-1.2h0.2
		c-0.1,0.2-0.2,0.4-0.4,0.6s-0.2,0.4-0.4,0.7c0.3-0.2,0.6-0.4,0.8-0.7c0.2-0.3,0.5-0.5,0.8-0.5c0.1,0.2,0,0.3-0.1,0.4
		c-0.1,0.1-0.2,0.3-0.2,0.4c0.2-0.1,0.3-0.2,0.4-0.3c0.1-0.1,0.3-0.2,0.4-0.3c0.3,0.2,0.3,0.4,0.1,0.6c-0.2,0.2-0.3,0.5-0.5,0.7
		c0.2-0.2,0.3-0.3,0.4-0.4c0.1-0.1,0.2-0.2,0.3-0.3c0,0,0.1,0,0.1,0s0,0,0.1,0c-0.1,0.1-0.2,0.2-0.3,0.4c-0.1,0.1-0.2,0.2-0.3,0.4
		c0.1,0.1,0.1,0.2,0.1,0.2c0,0.5,0.2,0.8,0.5,0.9c0.3,0.2,0.6,0.3,1,0.3c0.9,0.1,1.9-0.1,2.8-0.6c0.3-0.1,0.6-0.3,0.9-0.6
		c0.5-0.4,0.8-0.9,0.9-1.5c0.1-0.5-0.1-1-0.5-1.3c-0.4-0.3-0.9-0.6-1.5-0.8c-0.9-0.4-1.6-1-2.2-1.9c-0.5-0.7-0.5-1.5,0-2.5
		c0.3-0.6,0.7-1.1,1.1-1.6c0.4-0.5,0.8-0.9,1.3-1.4c0.5-0.4,1.1-0.8,1.6-1.2c0.5-0.4,1.2-0.6,1.8-0.9c0.5-0.2,1-0.3,1.6-0.4
		c0.5,0,1,0,1.4,0.2c0.3,0.2,0.7,0.3,1,0.4c0.3,0.1,0.6,0.3,0.9,0.5c0.2,0.2,0.3,0.3,0.4,0.4c0.1,0.1,0.3,0.2,0.4,0.4
		c0.2,0.2,0.2,0.5,0,0.9c-0.1,0.1-0.1,0.1-0.1,0.2c0,0.1,0,0.1-0.1,0.2c-0.1,0.1-0.1,0.1-0.2,0.2c0,0.1-0.1,0.2-0.3,0.3
		c0,0,0,0.1,0,0.1c0,0.1,0,0.1,0,0.1c-0.4,0.5-0.8,1.1-1.2,1.6c-0.4,0.5-0.9,1-1.4,1.4l-0.1,0c0.1-0.2,0.2-0.3,0.3-0.4
		c0.1-0.1,0.3-0.2,0.4-0.4c0.2-0.3,0.4-0.5,0.6-0.8c0.2-0.3,0.4-0.5,0.7-0.8c0.1-0.1,0.2-0.3,0.3-0.5c-0.4,0.4-0.8,0.9-1.2,1.4
		c-0.4,0.5-0.8,0.9-1.4,1.3c0,0-0.1,0-0.1,0c0,0-0.1,0-0.1,0c0-0.1,0.1-0.1,0.1-0.2c0-0.1,0.1-0.2,0.1-0.3c-0.1,0.1-0.2,0.2-0.3,0.2
		s-0.1,0.1-0.2,0.2c-0.1,0.1-0.2,0.1-0.3,0.2c-0.1,0.1-0.2,0.1-0.3,0c-0.1-0.1-0.1-0.2,0-0.3s0.1-0.2,0.2-0.3
		c0.1-0.2,0.3-0.4,0.4-0.5s0.3-0.4,0.4-0.5c0.1-0.1,0.1-0.3,0.1-0.5c-0.3,0.3-0.5,0.6-0.7,0.8c-0.2,0.3-0.4,0.6-0.7,0.9
		c-0.1-0.2-0.1-0.4,0-0.5c0.1-0.2,0.2-0.3,0.2-0.5c0.2-0.3,0.3-0.5,0.4-0.8c0.1-0.2,0.3-0.5,0.4-0.8c0.1-0.2,0.2-0.4,0.3-0.6
		c0.1-0.2,0.1-0.4,0.2-0.6c-0.2-0.1-0.4-0.1-0.5,0s-0.3,0.2-0.5,0.3c-0.4,0.2-0.8,0.5-1.2,0.7c-0.3,0.3-0.7,0.6-1,0.9
		c0-0.1,0-0.1,0-0.1c0,0,0-0.1,0-0.1c-0.4,0.3-0.7,0.6-1.1,0.9c-0.3,0.4-0.5,0.7-0.6,1.1c0.1-0.2,0.3-0.3,0.4-0.4
		c0.1-0.1,0.3-0.3,0.4-0.4c-0.1,0.2-0.2,0.3-0.3,0.5c-0.1,0.2-0.2,0.3-0.3,0.5c-0.3,0.5-0.3,0.8,0.1,1.1c0.1,0.1,0.2,0.1,0.3,0.2
		c0.1,0,0.2,0.1,0.4,0.2c0.6,0.3,1.1,0.5,1.6,0.9c0.5,0.3,1,0.8,1.4,1.2c0.3,0.3,0.5,0.6,0.6,0.9c0.2,0.3,0.2,0.7,0.2,1.2
		c0,0.3,0,0.7-0.1,1.1c-0.1,0.4-0.3,0.7-0.6,1.1c-0.2,0.2-0.3,0.4-0.5,0.6c-0.2,0.2-0.4,0.4-0.5,0.6c0.1,0.1,0.1,0.1,0.1,0.1
		c0.1-0.1,0.1-0.1,0.2-0.2c0.1-0.1,0.2-0.2,0.2-0.2c0.2-0.1,0.3-0.2,0.4-0.4C147,26.3,147.1,26.2,147.2,26L147.2,26z M143.4,13.6
		c-0.3,0.3-0.7,0.5-1,0.8c-0.3,0.3-0.6,0.6-1,0.8c-0.5,0.4-0.8,0.9-0.8,1.4c0.1-0.1,0.3-0.3,0.6-0.6c0.3-0.3,0.6-0.6,0.9-0.9
		c0.3-0.3,0.6-0.6,0.8-0.9S143.4,13.7,143.4,13.6z M142.3,16.4c-0.3,0.2-0.4,0.3-0.4,0.4c0,0.1-0.1,0.2-0.1,0.4
		c0.1-0.1,0.2-0.2,0.3-0.4C142.1,16.6,142.2,16.5,142.3,16.4z M144,15.8c-0.3,0.2-0.5,0.4-0.8,0.6c-0.2,0.2-0.4,0.5-0.5,0.9
		c0.2-0.3,0.4-0.5,0.6-0.8C143.6,16.3,143.8,16,144,15.8z M144.3,24.8c-0.3,0.2-0.6,0.4-0.7,0.8c0.2-0.1,0.3-0.2,0.4-0.3
		S144.3,25,144.3,24.8z M146.5,25.9L146.5,25.9c-0.1,0-0.2,0-0.2,0s-0.1,0.1-0.1,0.1c0,0,0,0.1,0,0.1c0,0,0,0.1,0,0.1h0.1
		C146.3,26.1,146.4,26,146.5,25.9z M148.9,16L148.9,16c-0.3,0.2-0.5,0.4-0.6,0.6c-0.2,0.2-0.4,0.5-0.5,0.7c0,0,0.1,0,0.1,0
		c0,0,0,0,0.1,0c0.2-0.3,0.3-0.5,0.5-0.7C148.6,16.5,148.8,16.2,148.9,16z"/>
</g>
</svg>
